<svg width="87" height="103" viewBox="0 0 87 103" fill="none" xmlns="http://www.w3.org/2000/svg">
<path fill-rule="evenodd" clip-rule="evenodd" d="M33.3003 58.4324C27.2262 52.1728 23.1152 44.5016 23.8021 35.9059C25.7815 11.139 65.0504 16.5874 72.689 29.0876C80.3276 41.5878 79.4199 73.2955 69.5477 75.5296C65.6107 76.4206 57.2236 74.2381 48.6876 69.7209L54.0455 103H22.4091L33.3003 58.4324Z" fill="#B28B67"/>
<path fill-rule="evenodd" clip-rule="evenodd" d="M10.0095 27.6615C8.98763 26.7725 8.43024 25.5036 7.94809 24.2987C7.44736 23.047 6.96085 21.7825 6.62841 20.4797C5.96413 17.8766 5.95782 14.8831 8.07294 12.8618C9.76923 11.241 12.3144 10.514 14.6635 10.356C16.2285 10.2506 17.8359 10.4431 19.3361 10.8761C20.8245 11.3056 22.1076 12.1617 23.5505 12.693C23.6056 9.88788 24.1529 6.95273 25.7739 4.55755C27.3336 2.253 29.8205 0.959777 32.6527 0.617642C35.5596 0.266525 38.4301 0.863735 41.0325 2.09927C41.684 2.4087 42.3294 2.73287 42.9471 3.09976C43.4644 3.40701 44.0021 3.77701 44.609 3.90195C45.2855 4.04141 45.6208 3.69836 46.0605 3.26501C46.5761 2.75694 47.1569 2.30943 47.7715 1.91271C50.4893 0.158851 54.0551 -0.562269 57.2037 0.48901C58.6544 0.973366 60.0651 1.79594 61.0493 2.92944C61.9266 3.93984 62.5524 5.54261 63.7633 6.24658C64.2771 6.54541 64.64 6.1495 65.1078 5.85688C65.8106 5.41721 66.4808 4.93205 67.192 4.50435C68.191 3.90345 69.2727 3.45399 70.431 3.21872C72.1267 2.87428 74.47 2.95501 74.9548 4.90487C75.1368 5.63728 74.9973 6.42058 74.9384 7.15851C74.8578 8.17179 74.7736 9.18472 74.6733 10.1965C74.5973 10.9647 74.5011 11.7067 74.3359 12.4611C74.2478 12.8632 73.9722 13.6129 74.1686 14.0156C74.4141 14.519 75.5469 14.2328 76.0309 14.2503C76.9868 14.285 77.9468 14.4321 78.8306 14.7907C79.5157 15.0687 80.2359 15.4775 80.525 16.1669C80.7027 16.5903 80.6559 17.0253 80.5719 17.4609C80.4712 17.9837 80.5864 18.261 80.6616 18.7886C81.9455 18.2335 86.3946 17.0003 86.9544 19.0204C87.1408 19.693 86.7164 20.4531 86.3925 21.0203C85.8246 22.0153 85.08 22.9247 84.3188 23.792C82.731 25.6012 80.8354 27.1617 78.7958 28.4963C81.1854 29.429 81.8091 32.18 79.7402 33.819C78.8268 34.5427 77.5986 34.7038 76.4463 34.6575C76.0246 34.6406 75.4166 34.4982 75.0848 34.5627C74.9062 34.5974 74.715 34.7303 74.4676 34.7451C72.8414 34.8429 71.0057 34.4989 69.4161 34.1821C66.5835 33.6176 63.902 32.4394 61.7121 30.645C61.1504 30.1848 60.6863 29.9198 59.9302 29.9266C59.2676 29.9324 58.6175 30.0919 57.9555 30.1067C56.204 30.1459 54.6248 29.3942 52.9984 28.8938C52.8988 30.8228 52.2731 32.9474 51.3743 34.6828C50.6414 36.098 49.1108 36.3037 47.6069 36.4278C42.7974 36.8251 37.971 36.3818 33.1555 36.3876C37.817 37.3127 42.634 37.694 47.2542 38.7826C49.3426 39.2745 47.7478 40.5103 46.8549 41.367C45.3845 42.7777 44.2912 44.5255 43.5329 46.3669C41.2525 43.7572 37.2219 42.0376 33.651 42.8394C29.7054 43.7251 26.9271 48.4096 29.4501 51.7774C30.9149 53.7324 33.5601 54.4872 35.7611 55.3271C34.0441 56.8944 33.6288 59.2092 32.5953 61.1591C32.0856 62.1207 31.3701 63.2079 30.2302 63.543C29.8085 63.667 29.314 63.6776 28.9813 63.9794C28.5691 64.3531 28.471 64.7709 27.9447 65.0921C25.8445 66.374 22.5639 66.2752 20.7023 64.6023C19.0189 63.0894 19.4569 60.6952 20.8629 59.1613C18.6248 58.3423 14.5475 57.289 15.437 54.2278C10.5875 53.9451 -1.18695 47.04 5.32182 41.9942C1.7498 40.2218 -1.53188 35.8903 0.76255 32.072C2.52934 29.1317 6.63824 27.8174 10.0095 27.6615Z" fill="#191847"/>
</svg>
